<svg xmlns="http://www.w3.org/2000/svg" xmlns:xlink="http://www.w3.org/1999/xlink" xmlns:inkscape="http://www.inkscape.org/namespaces/inkscape" version="1.1" width="583.937" height="305" viewBox="0 0 583.937 305">
<defs>
<clipPath id="clip_1">
<path transform="matrix(1,0,0,-1,0,330.512)" d="M0 25.511994H583.937V330.512H0Z" clip-rule="evenodd"/>
</clipPath>
</defs>
<g>
<g clip-path="url(#clip_1)">
<g inkscape:groupmode="layer" inkscape:label="&#x56FE;&#x5C42; 1">
<text fill="#de6931" xml:space="preserve" transform="matrix(1 0 -0 1 0 330.512)" font-size="12" font-family="SourceHanSansCN-Bold" font-weight="bold"><tspan y="-347.0684" x="126.8174 135.3854 139.34542 147.52942 154.90943 162.79343 170.29343 179.53343 187.71744">DIRECTORY</tspan></text>
<text fill="#2c292a" xml:space="preserve" transform="matrix(1 0 -0 1 0 330.512)" font-size="8" font-family="SourceHanSansCN-Light"><tspan y="-293.9746" x="37.333 41.973 46.349 48.732999 53.037 55.853 59.773004 61.549005 66.44501 69.31701 73.62101 77.61301 81.989009 86.70901 89.52501 91.58101 96.33301 101.07701">Safety Precautions</tspan><tspan y="-264.40663" x="37.333 42.229 46.605 50.597 54.765 56.821 61.565">Packing</tspan><tspan y="-234.99861" x="37.333 42.469 45.341005 47.397005 51.701005 54.085004 55.861005 58.037004 62.781003 65.597 68.469 73.221 78.061008 82.781009 86.773 89.589008 91.645008 96.397">Brief Introduction</tspan><tspan y="-207.22261" x="37.333 43.629 48.381 51.197004 55.909006 60.213006 63.085008 67.909008 72.661 77.037 79.909008 84.74901 86.52501 91.90101 93.95701 98.33301 102.67701 105.54901 109.92501">Motherboard Diagram</tspan><tspan y="-176.84662" x="37.333 42.197 46.501 50.877 53.749 55.525 57.661005 60.813005 66.621 68.397 73.237 77.613 82.357 86.661">Rear l/O panel</tspan><tspan y="-147.01462" x="37.333 39.509 44.253 47.869 50.685 55.061 57.197004 59.333005 63.709005 66.525 68.581 73.333 78.077 79.853008 84.229007 88.97301 93.813 95.589008 100.229007 104.533008 107.34901 110.16501 112.22101 116.96501 121.30901">Installation and Settings</tspan><tspan y="-117.41462" x="37.333 42.709 45.581 47.637 51.549 55.853 58.725004 62.341005 64.117008 66.173007 70.91701 74.533008 77.34901 81.725009 83.86101 85.99701 90.37301 93.18901 95.24501 99.99701">Drivers installation</tspan><tspan y="-87.31862" x="37.333 42.469 44.605005 50.413003 55.053 56.829004 61.469 65.773 68.589008 71.40501 73.461009 78.20501 82.54901">BlOS Settings</tspan></text>
<text fill="#de6931" xml:space="preserve" transform="matrix(1 0 -0 1 0 330.512)" font-size="12" font-family="SourceHanSansCN-Bold" font-weight="bold"><tspan y="-347.4043" x="381.7744 389.26243 396.9544 403.9744 411.3544 418.8544 425.82643 428.5504 436.5544 444.7384 452.1184 460.0024 467.6944 476.6704 484.1704 488.1304 497.3704 506.3584">SAFETY PRECAUTIONS</tspan></text>
<text fill="#2c292a" xml:space="preserve" transform="matrix(1 0 -0 1 0 330.512)" font-size="8" font-family="SourceHanSansCN-Light"><tspan y="-326.4434" x="332.7305 337.8265 340.8985 345.8505 350.8905 355.81053 360.0025 363.0185 366.8345 368.81053 373.0025 377.9545 382.8745 385.2105 390.25053 392.22654 397.26655 400.33854 405.29054 410.3145 414.8905 419.9145 422.2505 426.37049 428.3465 433.37049 437.87449 439.8505 444.8905 449.4665 456.8985 461.4745 466.0185 470.5225 475.5625 477.5385 482.57853 487.49855 492.00254 493.97856 496.99455 501.94654 503.92256 508.42655 510.76255 515.26657 519.45858 522.47457 525.5466 530.4986 534.3146 537.33059 541.90658 544.92257 547.1785">Products could probably be damaged due to electrostatic</tspan><tspan y="-316.84339" x="332.7305 337.5305 339.54649 343.12248 347.07447 351.74647 356.08247 358.91447 363.21846 367.48246 369.96247 374.50648 379.10649 384.44248 386.9225 388.88249 393.73847 395.83448 400.09849 404.43449 408.01048 412.27449 414.01048 416.35447 421.06648 423.16249 425.25849 429.9705 436.0585 437.7945 440.5705 445.2425 449.5065 453.0825 457.3465 459.0825 462.65849 465.43449 469.6985 474.49848 478.07447 479.81047 484.59446 488.85847 490.95448 495.66648 501.7545 503.49049 505.83448 510.54649 513.3785 515.1145 519.4505 521.1865 524.7625 529.4425 533.39456 537.34658 541.61056 545.1865 548.7625">discharge(ESD).Please follow these steps below for a success-</tspan><tspan y="-307.24339" x="332.7305 335.1385 339.88249 342.04249 343.84248 347.85847 352.63447 359.89048 364.7545 369.49848 372.33848 376.66648 379.56248 381.36247 385.76246 389.40248 393.04249 397.37049 404.6265 409.4745 411.6345 415.5785">ful computer assembly.</tspan><tspan y="-291.77137" x="332.7305 339.1065 343.5625 347.8105 352.1945 354.05049 357.7465 362.54649 365.49848 369.88249 371.73847 376.19447 378.41047 380.62648 382.48246 387.40248 391.85847 394.81047 397.70646 401.40248 403.25846 407.71446 410.66645 415.05046 416.90644 421.58644 424.53843 431.85044 434.06645 438.06645 439.92243 443.99443 448.82643 453.65043 458.47444 462.85844 466.93043 469.82643 474.21043 479.13044 481.21043 483.0664 487.8984 490.7944 495.5864 499.9704 502.9224 509.1304 511.2664 514.9624 519.3464 521.4264 523.2824 525.4184 528.3144 530.1704 537.4824 539.6184 544.0424 548.8344">Make sure all parts are &#xfb01;rmly connected; otherwise, it might</tspan><tspan y="-282.17137" x="332.7305 334.9305 339.29853 343.73854 348.64253 350.4825 353.36253 358.17854 360.01853 362.89854 367.67454 372.04255 373.88255 376.33055 380.77055 382.89054 385.09056 389.87455 392.81056 397.17857 399.01856 403.83457 406.28257 408.12257 411.05857 415.42658 419.48258 424.29859 428.70658 433.5146 435.63459 439.32258 441.44258 446.25059 450.65858 452.49858 456.55458 461.37059 468.66658 473.57057 478.38658 483.19459 487.5626 492.3706 495.2506 498.9306 500.7706 505.5866 508.5226 510.3626 514.0426 516.9226 521.3626 524.2986 527.1786 529.2986 534.10659 538.5146 540.3546 543.2346 548.0106">lead to the failure of recognizing components or starting the</tspan><tspan y="-272.57136" x="332.7305 336.8025 341.6345 348.9465 353.86653 358.6665 361.5625 365.9465 368.8985">computer.</tspan><tspan y="-258.57136" x="332.7305 335.1225 340.0825 342.0745 347.04249 350.1305 355.1865 359.70649 362.7945 364.7865 367.8185 372.7865 374.7785 379.8345 382.92253 387.4425 391.5705 396.09049 401.05049 404.0825 406.0745 411.1305 414.2185 419.1865 424.2425 429.1785 433.3865 436.41853 440.25053 442.24253 444.84254 447.93055 452.89854 460.34654 462.33854 467.37855 471.89854 474.17054 479.13053 483.69053 485.68254 490.73854 495.33055 502.77854 507.37055 511.93055 516.45059 521.5066 523.4986 528.5386 532.67459 534.66659 539.46658 544.3226 549.91458">In order to prevent products from being damaged by ESD,</tspan><tspan y="-248.97135" x="332.7305 337.6745 339.9145 344.32249 348.8025 352.5225 356.93049 358.8105 366.14649 370.6265 374.8985 379.3065 381.1865 384.9065 389.7305 392.7065 397.1145 398.9945 401.91453 406.7705 408.6505 413.5945 415.75453 419.47453 423.57054 428.38655 432.86656 435.84257 440.29057 444.69856 446.57856 450.60255 455.45854 460.28254 463.25856 465.13856 470.06657 474.92256 479.86656 483.89054 485.77055 489.49055 492.41056 496.89057 499.81059 501.97059 506.0666 507.9466 512.8746 516.89859 518.77859 521.69857 526.55459 531.37857 535.47457 540.2905 542.4505 547.2985">please make sure to discharge your body static by touching</tspan><tspan y="-239.37134" x="332.7305 337.4185 340.1705 344.8185 349.0585 351.86653 353.57853 360.74653 364.9865 367.73854 372.05055 374.12254 375.83454 380.52253 385.28254 387.28254 391.52253 395.45054 398.20256 401.75456 403.46656 408.22657 412.46656 414.78657 419.47456 422.28257 426.52256 428.23457 430.98658 435.29859 439.4026 441.3946 446.0746 450.35459 452.0666 454.8186 459.4666 463.7066 465.4186 472.5866 477.2746 480.0266 484.67463 488.9146 491.72264 496.48265 501.17063 505.48265 508.29066 513.06668 514.7786 519.4666 524.1226 526.87466 528.5866 533.2746 535.5946 537.3066 542.0666 546.7546 550.3706">other metal objects before taking the motherboard out of box.</tspan><tspan y="-223.25934" x="332.7305 338.5465 343.4345 345.7065 350.68254 352.5945 355.5465 360.3945 364.8345 366.7465 371.70649 376.59449 379.60249 384.5785 389.0185 392.0265 393.93849 398.82649 401.34648 403.25846 410.62648 415.51448 418.46647 423.31446 427.75447 430.76246 435.72245 440.61045 445.12245 448.13044 453.10646 455.01844 461.28245 466.13044 470.57044 475.45045 477.36244 480.31443 484.82643 489.1304 491.3224 496.2024 500.6824 502.5944 504.78639 507.73838 509.65037 514.5383 519.39437 522.3464 524.48239 526.39437 531.9064 536.7944 538.70639 543.58639 548.47439">Hold the border of motherboard when taking it out. Do not</tspan><tspan y="-213.65933" x="332.7305 335.6265 340.4585 345.25849 349.33049 354.12248 355.97846 358.87446 363.66645 368.05046 369.90644 373.60246 377.98646 382.81047 386.50648 388.64247 391.53846 393.67445 397.66645 402.05046 403.90644 408.82646 413.28245 416.23445 419.13044 422.82646 424.68244 429.51445 431.97843 433.8344 441.14643 445.97843 448.87443 453.6664 458.0504 461.0024 465.9064 470.7384 475.1944 478.1464 483.0664">touch the sensitive parts of motherboard.</tspan><tspan y="-197.85933" x="332.7305 337.6825 339.87449 344.2345 348.6665 352.3385 356.6985 358.5305 363.42649 368.20249 371.0745 372.9065 375.7785 380.5465 384.9065 386.7385 394.0265 398.8345 401.7065 406.47453 410.83454 413.76255 418.64256 423.45057 427.88258 430.81059 435.70658 437.53858 439.65058 444.45057 446.28257 450.71458 455.51457 457.34657 461.77857 466.57856 469.45057 471.56257 474.28257 477.95457 480.82658 485.25859 488.13059 490.24259 494.2906 496.1226 500.1706 504.9786 509.7786 512.6506 517.0826 519.1946 523.99459 528.35458 531.28256 533.1145 537.9225 540.85049 542.68246 547.4904">Please put the motherboard in an anti-static container or on</tspan><tspan y="-188.25933" x="332.7305 337.1865 342.0105 344.9065 347.04249 349.78648 353.48249 356.37849 360.83448 363.73048 365.86647 369.93846 371.79444 376.71446 381.17045 386.09046 387.94645 390.08244 392.54643 394.4024 399.2264 404.0584 406.9544 408.8104 413.6344 418.0184 422.4024 427.32243 431.70643 436.62644">anti-static pad if not needed.</tspan><tspan y="-172.02733" x="332.7305 337.8025 342.04249 344.3625 349.05049 351.8585 356.09849 357.8105 360.5625 365.2185 368.02653 372.7065 374.69853 379.3785 383.6585 385.3705 390.0585 394.7385 396.4505 399.2025 403.85054 408.0905 409.80253 413.73054 418.41853 425.58653 430.36253 435.01853 437.77055 442.01054 444.81855 446.75456 448.46656 455.63456 459.94657 464.05058 468.29057 470.00257 473.55458 478.21058 481.0186 485.25859 486.97059 491.2826 493.35459 495.42658 497.13859 501.91459 506.2266 509.0346 511.78663 515.3386 517.0506 519.0426 523.7226 527.2746 529.2666 534.0426 538.2826 539.99459 542.7466 547.3946">Before turning on the computer, make sure all parts inside the</tspan><tspan y="-162.42733" x="332.7305 336.7625 341.17854 344.83454 349.17854 350.99455 355.41053 358.3225 362.6665 364.4825 369.12254 372.03453 379.30653 381.4825 385.4425 387.2585 391.29054 396.08253 400.86653 405.6505 409.9945 414.02653 416.8825 421.2265 426.1065 427.92253 434.0905 436.18653 439.0425 443.79454 448.58653 453.34654 456.2025 458.01853 462.4345 467.2185 471.1785 472.9945 475.1705 479.9625 484.7545 488.4105 492.7545 494.5705 498.2265 502.2585 505.1705 509.5145 515.6825 519.3385 521.1545 525.9465 528.85848 530.67446 537.9464 542.2904 545.1464 549.56246">case are &#xfb01;rmly connected without any loose screws or metal</tspan><tspan y="-152.82732" x="332.7305 336.7785 341.58653 348.8745 353.7705 358.57853 363.3785 367.73854 372.5385 375.41053 379.08253">components.</tspan><tspan y="-136.46732" x="332.7305 338.2025 343.0505 344.92253 349.7625 354.6105 357.5225 359.3945 363.1065 366.0185 370.4905 373.4585 376.37049 378.2425 381.15449 385.9625 390.3625 392.2345 396.3225 401.1705 408.4985 413.4345 418.25053 421.1625 425.5625 428.5305 430.4025 435.3225 439.7225 442.2025 447.0505 450.0185 454.4185 456.2905 458.4425 463.2825 466.9945 469.9065 474.3785 476.6105 478.8425 483.3145 486.2265 488.3785 493.2265 498.0665 499.9385 504.63453 509.47453 511.62654 515.3385 520.1465 524.5465 529.4825 531.5785 536.4265 539.3385 544.1465 548.5465">Do not start the computer before installation &#xfb01;nished,other</tspan><tspan y="-126.86732" x="332.7305 339.0585 341.3145 345.13053 349.63453 351.61054 353.86656 356.88255 358.85856 366.29057 368.54658 373.09059 378.00257 381.01856 382.99458 386.06657 390.57057 394.38658 399.30659 401.64259 404.65858 406.63459 408.8906 413.8346 415.8106 420.85063 425.3546 428.4266 435.8586 440.4346 445.3786 449.8826 454.8266 457.8426 459.8186 464.8586 469.4346 476.8666 481.4426 485.9866 490.4906 492.4666 495.4826 500.4346 502.4106 505.4266 510.3386 514.8426 519.0346 523.98666 531.41867 536.4586 541.3786 544.3946 548.8986 551.97067">wise it might result in permanent damage to thecomputer </tspan><tspan y="-117.26732" x="332.7305 337.6105 342.0265 344.93849 347.79447 351.45048 353.26649 358.05848 360.97047 362.78648 367.13047 371.08247 375.42646 380.21046 382.02647 384.12248 388.90647 391.01048 395.77049 398.68247 402.64247 404.45848 407.31446 412.10646 413.92247 416.77845 421.53047 425.87446 427.69047 432.45048 436.10649 440.45048 443.36247">parts or even injury to the user.</tspan><tspan y="-99.995319" x="332.7305 334.8185 337.1545 338.8825 342.75453 347.45854 352.13053 353.85853 358.55455 362.81056 367.06657 371.85856 373.58656 377.91456 382.61058 386.48258 388.21058 392.53858 396.10658 399.67457 401.68257 405.25056 408.01856 412.34657 417.04258 420.98658 425.24259 426.97059 428.97859 433.6746 435.4026 438.1706 442.8346 447.0906 448.8186 453.6106 456.4346 461.1386 465.0826 469.33863 472.90663 476.4746 478.2026 482.90663 487.45863 492.15464 495.72264 498.49064 502.81864 504.90666 506.99467 511.32267 514.09066 516.09866 520.8026 525.4986 527.4506 529.17868 533.97067 536.05868 540.31466 544.64266 548.21066">lf you need any assistance in the process o&#xfb01;nstallation, please</tspan><tspan y="-90.39532" x="332.7305 337.1545 342.3385 347.5145 350.76249 355.5705 359.9945 363.2425 365.4505 370.6345 375.7865 379.09049 381.2985 386.1065 388.92253 392.1705 396.9065 400.21049 403.3065 407.3545 412.1625 414.7305 419.4665 423.5145 425.7225 430.1465 435.29853 439.34654 442.5945 447.7785 455.4425 460.1785 463.48249 465.6905 469.7385 474.4745 477.77848 482.12248 484.61048 489.0345 493.77049 495.9785 501.16249 504.46647 506.67448 509.97846 514.7145 519.52249 523.9465 529.09048 531.29849 536.45046 540.4984 542.7064 547.89047">contact our after-sales customer service or reach us on</tspan><tspan y="-80.79532" x="332.7305 338.7145 344.6585 349.6585 355.6185 360.6185 366.5785 371.65849 377.6425 380.0825 382.16249 387.21849 394.3625 398.65849 401.01847 405.69847 408.13847 410.21846 415.10646 418.07444 425.61045 430.29045 432.65043 435.09043 437.3944 442.5224 447.5464 451.4664 453.8264 458.8744 463.4824 467.4024 471.32243 478.90644 483.92243 488.9464 493.6264 498.6744 503.3544 508.4024 512.3304 517.3464 519.70639 522.0104 526.3064 531.3624 538.89846 540.97848 543.66647 548.7225">HUANANZHl o&#xfb03;cial E-mail:business@huananzhi.com for</tspan><tspan y="-71.19532" x="332.7305 337.6665 340.6345 345.48249 347.9625 352.3625 356.0745 359.7865 361.9385 366.7865 371.6265 376.0985 378.3305 380.2025 383.1145 387.5145 391.6025 396.41053 401.25053 403.40254 407.49055 411.96257 414.19456 416.06657 419.77857 424.59458 429.53059 434.46659 439.31459 442.28257 445.19456">professional technical support.</tspan><tspan y="-52.339319" x="332.7305 337.4985 340.2425 342.1705 346.7945 349.53849 351.1865 353.87449 358.49848 360.14649 362.0745 366.6905 370.1785 372.8665 377.11448 379.12248 381.13047 385.37846 388.06645 389.99446 394.61845 399.23445 400.88246 405.50645 408.25044 409.89845 414.61045 416.53846 420.02647 424.27445 427.76246 431.25047 435.42646 442.53047 447.22648 449.23448 453.02647 454.89848 456.54649 461.25849 463.26649 467.44248 471.69047 475.17848 479.35447 481.00248 484.49049 490.49049 492.4185 495.10649 498.9705 503.5545 505.2025 509.8265 514.4825 516.1305 518.8185 523.40249 527.5785 529.2265 533.9385 538.5625 544.5625 548.7385">Prior to installation or disassembly, please switch o&#xfb00; the power</tspan><tspan y="-42.73932" x="332.7305 337.0585 341.75453 346.5465 348.2745 353.0665 357.7385 359.8265 361.91453 363.64253 366.41053 371.07453 375.33055 377.05854 381.85054 386.55455 392.63453 396.89054 399.71455 401.44255 405.38655 409.71455 414.49055 416.57856 420.83457 422.56257 424.89857 427.72257 432.42658 439.61058 441.33857 444.10658 448.77058 453.02659 454.75459 458.32258 463.02659 466.97059 471.09059 475.3466 478.1146">and pull the power cable from the socket.</tspan></text>
<text fill="#2c292a" xml:space="preserve" transform="matrix(1 0 -0 1 0 330.512)" font-size="9" font-family="SourceHanSansCN-Regular"><tspan y="-295.3945" x="109.5566 112.0586 114.5606 117.0626 119.5646 122.0666 124.568599 127.070598 129.5726 132.0746 134.5766 137.0786 139.5806 142.0826 144.5846 147.0866 149.5886 152.09059 154.59259 157.09459 159.59659 162.09859 164.60059 167.10259 169.60459 172.10659 174.60858 177.11058 179.61258 182.11458 184.61658 187.11858 189.62058 192.12258 194.62458 197.12657 199.62857 202.13057 204.63257 207.13457 209.63657 212.13857 214.64057 217.14257 219.64456 222.14656 224.64856 227.15056 229.65256 232.15456 234.65656 237.15856 239.66056 242.16255 244.66455 247.16655 249.66855 252.17055 254.67255 257.17457 259.67658 262.1786 264.6806 267.18263">................................................................</tspan><tspan y="-265.6495" x="69.7226 72.2246 74.7266 77.2286 79.7306 82.2326 84.7346 87.236598 89.738597 92.24059 94.74259 97.24459 99.74659 102.24859 104.75059 107.25259 109.754589 112.256587 114.75858 117.26058 119.76258 122.26458 124.76658 127.26858 129.77059 132.27259 134.77458 137.27658 139.77858 142.28058 144.78258 147.28458 149.78658 152.28858 154.79058 157.29257 159.79457 162.29657 164.79857 167.30057 169.80257 172.30457 174.80657 177.30857 179.81056 182.31256 184.81456 187.31656 189.81856 192.32056 194.82256 197.32456 199.82656 202.32855 204.83055 207.33255 209.83455 212.33655 214.83855 217.34055 219.84255 222.34455 224.84654 227.34854 229.85054 232.35254 234.85454 237.35654 239.85854 242.36054 244.86254 247.36454 249.86653 252.36853 254.87053 257.37254 259.87455 262.37657 264.87858 267.38059">................................................................................</tspan><tspan y="-236.98451" x="104.5526 107.054599 109.556598 112.05859 114.56059 117.06259 119.56459 122.06659 124.56859 127.07059 129.57259 132.07459 134.57659 137.07859 139.58058 142.08258 144.58458 147.08658 149.58858 152.09058 154.59258 157.09458 159.59658 162.09857 164.60057 167.10257 169.60457 172.10657 174.60857 177.11057 179.61257 182.11457 184.61656 187.11856 189.62056 192.12256 194.62456 197.12656 199.62856 202.13056 204.63256 207.13455 209.63655 212.13855 214.64055 217.14255 219.64455 222.14655 224.64855 227.15055 229.65254 232.15454 234.65654 237.15854 239.66054 242.16254 244.66454 247.16654 249.66854 252.17053 254.67253 257.17454 259.67655 262.17857 264.68058 267.1826">..................................................................</tspan><tspan y="-209.03052" x="122.0666 124.568599 127.070598 129.5726 132.0746 134.5766 137.0786 139.5806 142.0826 144.5846 147.0866 149.5886 152.09059 154.59259 157.09459 159.59659 162.09859 164.60059 167.10259 169.60459 172.10659 174.60858 177.11058 179.61258 182.11458 184.61658 187.11858 189.62058 192.12258 194.62458 197.12657 199.62857 202.13057 204.63257 207.13457 209.63657 212.13857 214.64057 217.14257 219.64456 222.14656 224.64856 227.15056 229.65256 232.15456 234.65656 237.15856 239.66056 242.16255 244.66455 247.16655 249.66855 252.17055 254.67255 257.17457 259.67658 262.1786 264.6806 267.18263">...........................................................</tspan><tspan y="-179.03353" x="94.54459 97.04659 99.54859 102.05059 104.55259 107.05459 109.55659 112.058589 114.560588 117.062587 119.56458 122.06658 124.56858 127.07058 129.57259 132.07459 134.57659 137.07859 139.58058 142.08258 144.58458 147.08658 149.58858 152.09058 154.59258 157.09458 159.59658 162.09857 164.60057 167.10257 169.60457 172.10657 174.60857 177.11057 179.61257 182.11457 184.61656 187.11856 189.62056 192.12256 194.62456 197.12656 199.62856 202.13056 204.63256 207.13455 209.63655 212.13855 214.64055 217.14255 219.64455 222.14655 224.64855 227.15055 229.65254 232.15454 234.65654 237.15854 239.66054 242.16254 244.66454 247.16654 249.66854 252.17053 254.67253 257.17454 259.67655 262.17857 264.68058 267.1826">......................................................................</tspan><tspan y="-148.37053" x="132.07459 134.57659 137.07859 139.58058 142.08258 144.58458 147.08658 149.58858 152.09058 154.59258 157.09458 159.59658 162.09857 164.60057 167.10257 169.60457 172.10657 174.60857 177.11057 179.61257 182.11457 184.61656 187.11856 189.62056 192.12256 194.62456 197.12656 199.62856 202.13056 204.63256 207.13455 209.63655 212.13855 214.64055 217.14255 219.64455 222.14655 224.64855 227.15055 229.65254 232.15454 234.65654 237.15854 239.66054 242.16254 244.66454 247.16654 249.66854 252.17053 254.67253 257.17454 259.67655 262.17857 264.68058 267.1826">.......................................................</tspan><tspan y="-90.041538" x="92.04259 94.544589 97.046588 99.548587 102.05058 104.55258 107.05458 109.55658 112.05858 114.56058 117.06258 119.564579 122.066577 124.56857 127.07057 129.57257 132.07457 134.57657 137.07857 139.58057 142.08257 144.58457 147.08657 149.58856 152.09056 154.59256 157.09456 159.59656 162.09856 164.60056 167.10256 169.60456 172.10655 174.60855 177.11055 179.61255 182.11455 184.61655 187.11855 189.62055 192.12255 194.62454 197.12654 199.62854 202.13054 204.63254 207.13454 209.63654 212.13854 214.64054 217.14253 219.64453 222.14653 224.64853 227.15053 229.65253 232.15453 234.65653 237.15853 239.66053 242.16252 244.66452 247.16652 249.66852 252.17052 254.67252 257.17454 259.67655 262.17857 264.68058 267.1826">.......................................................................</tspan><tspan y="-119.138538" x="112.058589 114.560588 117.062587 119.56458 122.06658 124.56858 127.07058 129.57259 132.07459 134.57659 137.07859 139.58058 142.08258 144.58458 147.08658 149.58858 152.09058 154.59258 157.09458 159.59658 162.09857 164.60057 167.10257 169.60457 172.10657 174.60857 177.11057 179.61257 182.11457 184.61656 187.11856 189.62056 192.12256 194.62456 197.12656 199.62856 202.13056 204.63256 207.13455 209.63655 212.13855 214.64055 217.14255 219.64455 222.14655 224.64855 227.15055 229.65254 232.15454 234.65654 237.15854 239.66054 242.16254 244.66454 247.16654 249.66854 252.17053 254.67253 257.17454 259.67655 262.17857 264.68058 267.1826">...............................................................</tspan></text>
<text fill="#2c292a" xml:space="preserve" transform="matrix(1 0 -0 1 0 330.512)" font-size="9" font-family="SourceHanSansCN-Medium"><tspan y="-293.05455" x="274.7066">2</tspan><tspan y="-262.66154" x="274.7066">3</tspan><tspan y="-234.42853" x="274.7066">4</tspan><tspan y="-207.01453" x="274.7066">5</tspan><tspan y="-176.84653" x="274.7066">6</tspan><tspan y="-146.01253" x="274.7066">7</tspan><tspan y="-116.09653" x="274.7066 279.8366">13</tspan><tspan y="-86.98153" x="274.7066 279.8366">15</tspan></text>
<text fill="#2c292a" xml:space="preserve" transform="matrix(1 0 -0 1 0 330.512)" font-size="8" font-family="SourceHanSansCN-Light"><tspan y="-58.1533" x="37.333 44.189 48.565 51.437 54.309003 58.685 63.429 66.245 70.165 71.941 74.813 79.117008 83.461009 88.18101 90.31701 94.69301 97.50901 99.56501 104.31701 109.06101">Warranty regulations</tspan></text>
<text fill="#2c292a" xml:space="preserve" transform="matrix(1 0 -0 1 0 330.512)" font-size="9" font-family="SourceHanSansCN-Regular"><tspan y="-59.6387" x="117.0596 119.5616 122.0636 124.5656 127.0676 129.5696 132.0716 134.5736 137.07559 139.57759 142.07959 144.58159 147.08359 149.58559 152.08759 154.58959 157.09159 159.59358 162.09558 164.59758 167.09958 169.60158 172.10358 174.60558 177.10758 179.60958 182.11157 184.61357 187.11557 189.61757 192.11957 194.62157 197.12357 199.62557 202.12757 204.62957 207.13156 209.63356 212.13556 214.63756 217.13956 219.64156 222.14356 224.64556 227.14756 229.64955 232.15155 234.65355 237.15555 239.65755 242.15955 244.66155 247.16355 249.66555 252.16754 254.66954 257.17155 259.67356 262.17558 264.67759 267.1796">.............................................................</tspan></text>
<text fill="#2c292a" xml:space="preserve" transform="matrix(1 0 -0 1 0 330.512)" font-size="9" font-family="SourceHanSansCN-Medium"><tspan y="-56.8127" x="274.7126 279.8426">16</tspan></text>
<text fill="#2c292a" xml:space="preserve" transform="matrix(.9950372 0 -0 1.0049876 0 330.512)" font-size="6.0299255" font-family="MCTBHV+MiSans-Medium"><tspan y="-17.360713" x="20.549986 24.457379 27.092455 29.257199 31.421942 36.016744 37.60261 41.564275 45.248559 49.584077 53.340719 58.1526 62.11426">01  DIRECTORY</tspan></text>
<path transform="matrix(1,0,0,-1,29.186,308.1282)" stroke-width=".5" stroke-linecap="butt" stroke-miterlimit="10" stroke-linejoin="miter" fill="none" stroke="#191a1a" d="M0 0V-5.416"/>
<text fill="#2c292a" xml:space="preserve" transform="matrix(.9950372 0 -0 1.0049876 0 330.512)" font-size="6.0299255" font-family="MCTBHV+MiSans-Medium"><tspan y="-17.360713" x="485.8661 489.6529 493.8919 497.44956 501.13386 504.8905 508.93055 511.09529 515.0147 518.97647 522.6607 526.9963 531.2353 535.60098 539.3576 540.9435 545.7554 550.27786 554.06466 556.2294 558.3941 562.30148">SAFETY PRECAUTIONS  02</tspan></text>
<path transform="matrix(1,0,0,-1,553.6147,307.6272)" stroke-width=".5" stroke-linecap="butt" stroke-miterlimit="10" stroke-linejoin="miter" fill="none" stroke="#191a1a" d="M0 0V-6.251"/>
</g>
</g>
</g>
</svg>
