<svg xmlns="http://www.w3.org/2000/svg" xmlns:xlink="http://www.w3.org/1999/xlink" xmlns:inkscape="http://www.inkscape.org/namespaces/inkscape" version="1.1" width="583.937" height="305" viewBox="0 0 583.937 305">
<defs>
<clipPath id="clip_1">
<path transform="matrix(1,0,0,-1,0,330.512)" d="M0 25.511994H583.937V330.512H0Z" clip-rule="evenodd"/>
</clipPath>
<clipPath id="clip_2">
<path transform="matrix(1,0,0,-1,0,330.512)" d="M0 385.512H583.937V0H0Z"/>
</clipPath>
<clipPath id="clip_3">
<path transform="matrix(1,0,0,-1,0,330.512)" d="M0 385.512H583.937V0H0Z"/>
</clipPath>
<clipPath id="clip_4">
<path transform="matrix(1,0,0,-1,0,330.512)" d="M0 385.512H583.937V0H0Z"/>
</clipPath>
<clipPath id="clip_5">
<path transform="matrix(1,0,0,-1,0,330.512)" d="M0 385.512H583.937V0H0Z"/>
</clipPath>
<clipPath id="clip_6">
<path transform="matrix(1,0,0,-1,0,330.512)" d="M0 385.512H583.937V0H0Z"/>
</clipPath>
</defs>
<g>
<g clip-path="url(#clip_1)">
<g inkscape:groupmode="layer" inkscape:label="&#x56FE;&#x5C42; 1">
<text fill="#de6931" xml:space="preserve" transform="matrix(1 0 -0 1 0 330.512)" font-size="12" font-family="SourceHanSansCN-Bold" font-weight="bold"><tspan y="-347.4043" x="335.8379 344.0099 352.19389 356.15388 363.53388 370.55387 373.27787 377.23786 386.22587 393.72587 401.90986 411.14985 419.71784 428.69386 431.41786 439.30186 446.80186 450.76185 460.00184">BRIEF INTRODU CTION</tspan></text>
<text fill="#2c292a" xml:space="preserve" transform="matrix(.9950372 0 -0 1.0049876 0 330.512)" font-size="6.0299255" font-family="MCTBHV+MiSans-Medium"><tspan y="-17.360713" x="21.08484 24.992234 28.646368 30.81111 32.975854 36.895307 40.223825 43.57646 46.88689 48.49688 52.09675">03  Packing</tspan></text>
<path transform="matrix(1,0,0,-1,30.3135,308.1282)" stroke-width=".5" stroke-linecap="butt" stroke-miterlimit="10" stroke-linejoin="miter" fill="none" stroke="#191a1a" d="M0 0V-5.416"/>
<text fill="#2c292a" xml:space="preserve" transform="matrix(.9950372 0 -0 1.0049876 0 330.512)" font-size="6.0299255" font-family="MCTBHV+MiSans-Medium"><tspan y="-17.360713" x="503.06666 507.22129 509.69355 511.3035 514.80697 517.0681 519.23287 520.8187 524.4186 526.7461 529.2184 532.81826 536.54476 540.1446 543.4972 545.82479 547.43478 551.03457 554.6344 556.79916 558.96389 562.8713">Brief Introduction  04</tspan></text>
<path transform="matrix(1,0,0,-1,554.1465,307.6272)" stroke-width=".5" stroke-linecap="butt" stroke-miterlimit="10" stroke-linejoin="miter" fill="none" stroke="#191a1a" d="M0 0V-6.251"/>
<text fill="#de6931" xml:space="preserve" transform="matrix(1 0 -0 1 0 330.512)" font-size="11" font-family="MCTBHV+MiSans-Medium"><tspan y="-150.1914" x="116.5049">P</tspan></text>
<text fill="#de6931" xml:space="preserve" transform="matrix(1 0 -0 1 0 330.512)" font-size="11" font-family="UBSXPF+MiSans-Medium"><tspan y="-150.1914" x="123.6109">A</tspan></text>
<text fill="#de6931" xml:space="preserve" transform="matrix(1 0 -0 1 0 330.512)" font-size="11" font-family="MCTBHV+MiSans-Medium"><tspan y="-150.1914" x="130.9479 138.8569 146.4909 149.38391 157.63391">CKING</tspan></text>
<text fill="#2c292a" xml:space="preserve" transform="matrix(1 0 -0 1 0 330.512)" font-size="8" font-family="ZQJGHV+MiSans-Regular"><tspan y="-132.5859" x="32.749 37.741 39.725004 44.189004 48.461004 52.237005 56.701005 59.565004 63.821004 68.429 73.061008 75.86101 77.853008 80.869 87.91701 90.781009 93.63701 98.26901 102.541019 105.39702 108.26102 111.11702 115.74902 120.21302 123.07702 130.12502 134.73302 137.58902 142.22103 146.68503 149.70104 154.48503 159.09304 163.36504 166.38105 171.17305 174.03705 176.02906 179.80506 182.66905 187.45305 190.46906 195.07706 199.86106 204.32506 207.34107 209.32506 213.46106 216.32506 221.10906 225.38106 229.63706 233.71706 237.98906 242.78107 247.24507">Please confirm that the motherboard is properly packaged</tspan><tspan y="-122.98591" x="32.749 37.381 42.165 46.773004 51.405004 54.269 59.053 63.685 66.701007 70.957 75.589008 79.86101 83.63701 88.101009 90.965007 95.573009 98.37301 101.23701 104.09301 108.72501 113.18901 116.05301 120.837009 123.853008 128.461 133.253 137.88501 142.141 144.99701 146.981 149.845 151.797 154.597 157.461 160.317 164.949 169.41301 172.42902 176.89302 179.75702 181.74903 185.52503 188.38903 192.66103 197.29303 201.42903 204.29303 209.08504 213.35704 220.40505 224.67705 229.46906 233.93306 236.79706 239.65306">upon purchase of the product. If there is any damage to</tspan><tspan y="-113.38591" x="32.749 37.533 41.805 46.061 50.141004 54.413003 59.205 61.197004 65.829 70.621 73.485 78.093 81.109 83.973 85.957 90.229007 94.485 98.565 101.429 106.037 108.837009 111.701007 115.97301 120.229007 124.485 128.949 132.725 136.501 141.10901 144.12502 146.11702 150.58103 154.35703 156.42903 159.29303 163.54903 168.15703 172.78903 175.64504 179.91704 184.17304 187.02904 189.89304 194.52504 198.30104 201.16504 205.43704 209.21305 212.07704 215.85305 220.46105 225.06905 229.70105 232.56505 236.83705 240.61305">packaging or lack of accessories, contact us as soon as </tspan><tspan y="-103.78591" x="32.749 37.533 42.141004 45.917005 49.693006 51.685007 56.469007 58.453008">possible</tspan></text>
<text fill="#de6931" xml:space="preserve" transform="matrix(1 0 -0 1 0 330.512)" font-size="9" font-family="MCTBHV+MiSans-Medium"><tspan y="-320.5127" x="294.1397">F</tspan></text>
<text fill="#de6931" xml:space="preserve" transform="matrix(1 0 -0 1 0 330.512)" font-size="9" font-family="UBSXPF+MiSans-Medium"><tspan y="-320.5127" x="298.87373 303.72474">ea</tspan></text>
<text fill="#de6931" xml:space="preserve" transform="matrix(1 0 -0 1 0 330.512)" font-size="9" font-family="MCTBHV+MiSans-Medium"><tspan y="-320.5127" x="308.08973 311.56373 316.5497 319.73573 324.96473">tures</tspan></text>
<g clip-path="url(#clip_2)">
<path transform="matrix(1,0,0,-1,29.4424,195.1194)" d="M0 0C0-1.336-1.049-2.419-2.342-2.419-3.636-2.419-4.685-1.336-4.685 0-4.685 1.336-3.636 2.418-2.342 2.418-1.049 2.418 0 1.336 0 0" fill="#de6931"/>
</g>
<text fill="#2c292a" xml:space="preserve" transform="matrix(1 0 -0 1 0 330.512)" font-size="8" font-family="LLHVTX+MiSans-Light"><tspan y="-308.8584" x="32.9128 38.0648">Be</tspan></text>
<text fill="#2c292a" xml:space="preserve" transform="matrix(1 0 -0 1 0 330.512)" font-size="8" font-family="HNCSPF+MiSans-Light"><tspan y="-308.8584" x="42.3528">f</tspan></text>
<text fill="#2c292a" xml:space="preserve" transform="matrix(1 0 -0 1 0 330.512)" font-size="8" font-family="LLHVTX+MiSans-Light"><tspan y="-308.8584" x="44.6568 49.4088 52.1928 56.4968 58.048799 62.7768 64.664798 69.2408 73.9848 78.728809 80.536808 85.11281 89.5768 91.1288 93.7768 98.3528 102.9608 104.5128 109.2408 113.7928 119.8728 124.328807 127.4088 128.9608 132.6888 137.2648 141.9928 146.7208">ore plugging the power suppl</tspan></text>
<text fill="#2c292a" xml:space="preserve" transform="matrix(1 0 -0 1 0 330.512)" font-size="8" font-family="HNCSPF+MiSans-Light"><tspan y="-308.8584" x="149.1128 152.84079">y,</tspan></text>
<text fill="#2c292a" xml:space="preserve" transform="matrix(1 0 -0 1 0 330.512)" font-size="8" font-family="LLHVTX+MiSans-Light"><tspan y="-308.8584" x="154.84079 156.39279 161.12079 163.36879 167.53679 171.76879 175.49678 179.8328 181.3848 188.42479"> please ma</tspan></text>
<text fill="#2c292a" xml:space="preserve" transform="matrix(1 0 -0 1 0 330.512)" font-size="8" font-family="HNCSPF+MiSans-Light"><tspan y="-308.8584" x="192.9928">k</tspan></text>
<text fill="#2c292a" xml:space="preserve" transform="matrix(1 0 -0 1 0 330.512)" font-size="8" font-family="LLHVTX+MiSans-Light"><tspan y="-308.8584" x="197.0488 201.3528 202.9048 206.6328 211.2408 214.0248 218.3288 219.8808 222.5288 227.1048 231.7128 233.2648 236.9928 241.5448">e sure the soc</tspan></text>
<text fill="#2c292a" xml:space="preserve" transform="matrix(1 0 -0 1 0 330.512)" font-size="8" font-family="HNCSPF+MiSans-Light"><tspan y="-308.8584" x="245.6248">k</tspan></text>
<text fill="#2c292a" xml:space="preserve" transform="matrix(1 0 -0 1 0 330.512)" font-size="8" font-family="LLHVTX+MiSans-Light"><tspan y="-308.8584" x="249.6808 253.8968 256.5448">et </tspan><tspan y="-298.8584" x="32.91281 37.75281 40.53681 45.088815 48.960817 50.768815 55.504816 59.960817 63.688817 66.488819 69.13682 73.712818 78.168819 79.40081 83.23281 87.78481 90.85681 93.64881 98.10481 101.83281 106.56081 111.11281 115.68881 120.42481 122.23281 126.80881 131.55281 134.35282 138.22481 142.77681 144.46482 147.09682 151.47283 155.71283 160.16883">provides the corresponding voltage.</tspan><tspan y="-230.5464" x="33.35283 37.75283 39.56083 44.29683 48.87283 50.68083 55.41683 58.216829 62.944829 67.400829 71.704837 75.92084 78.73684 81.41684 85.70484 88.41684 92.87284 97.60884 100.408847 102.21684 106.13684 108.84884 113.40084 116.20084 118.84885 123.42485 127.88085 128.98484 132.81684 137.36884 144.40883 149.13683 154.36084 157.08084 161.38484 163.88884">Liquid penetrated into the computer.</tspan><tspan y="-219.4184" x="33.352846 39.648847 44.288846 46.936845 51.512845 55.968847 58.888849 63.816846 68.44084 72.81684 75.60084 80.33684 83.13684 84.94484 88.67284 89.66484 93.936847 97.59284 102.32084 106.87284 110.60084 115.05684 119.79284 121.74484 124.46484 129.01685 131.81685 138.85684 143.40885 145.03284 148.47284 151.12084 156.00884 158.79283 163.24883">Motherboard is exposed to moisture.</tspan><tspan y="-207.8904" x="32.52083 38.81683 43.45683 46.104829 50.68083 55.13683 58.05683 62.98483 67.608829 71.984828 74.76882 79.50482 82.304828 87.040828 91.59283 96.04883 99.776828 102.57683 105.416828 110.04883 112.69683 115.49683 121.576839 126.12884 129.04885 132.96884 134.33683 138.72882 142.60082 147.05681 151.63282 154.43282 156.24082 158.87282 161.67282 165.57683 170.12883 174.70484">Motherboard does not work even if you </tspan></text>
<text fill="#2c292a" xml:space="preserve" transform="matrix(1 0 -0 1 0 330.512)" font-size="8" font-family="HNCSPF+MiSans-Light"><tspan y="-207.8904" x="174.84882">f</tspan></text>
<text fill="#2c292a" xml:space="preserve" transform="matrix(1 0 -0 1 0 330.512)" font-size="8" font-family="LLHVTX+MiSans-Light"><tspan y="-207.8904" x="177.14482 181.69683 183.58483 185.47283 190.02483 196.10483 198.90483 201.55283 206.12883 210.58483 213.38483 215.19283 219.23282 222.67282 225.32082 228.24082 233.08083 236.98484 239.63283 241.44083 245.99283 250.56884 254.29683">ollow the instructions </tspan><tspan y="-198.29039" x="32.52083 37.07283 41.64883 44.44883 49.02483 52.75283 57.20883 60.12883 62.92883 69.96883 74.20083 78.776828 83.35283 87.58483 89.47283">on user manual.</tspan><tspan y="-188.04239" x="32.52083 38.81683 43.45683 46.104829 50.68083 55.13683 58.05683 62.98483 67.608829 71.984828 74.76882 79.50482">Motherboard </tspan></text>
<text fill="#2c292a" xml:space="preserve" transform="matrix(1 0 -0 1 0 330.512)" font-size="8" font-family="HNCSPF+MiSans-Light"><tspan y="-188.04239" x="81.38482">f</tspan></text>
<text fill="#2c292a" xml:space="preserve" transform="matrix(1 0 -0 1 0 330.512)" font-size="8" font-family="LLHVTX+MiSans-Light"><tspan y="-188.04239" x="83.68082 88.13682 90.02482 91.91282 94.71282 104.20082 105.97682 108.69682 113.248828 116.04883 118.69683 123.27283 127.72883 130.52883 135.59282 138.37682 142.92882 147.50482 152.08083 156.81684 159.61684 163.84883 168.42484 173.16083 174.94483 179.18483 183.82483 186.47283 189.27283 194.00882 198.24082 205.2808 209.24083 213.48084 217.93683 222.67282">ell o to the ground and got damaged.</tspan><tspan y="-176.65039" x="32.52083">M</tspan><tspan y="-90.77039" x="32.52083 35.488828 37.320829 42.912828 48.432828 53.544828 59.280828 64.39283 70.12883 74.79283 80.384838 82.14484 84.94484 90.53684 93.504848 97.92885 103.79285 106.880847 111.74484 117.60884 120.408847 127.27284 131.82485 134.47284 139.04885 143.50484 146.42484 151.15283 155.70484 159.93683 162.85683">1.HUANANZHI H12D-8D Motherboard</tspan><tspan y="-78.40239" x="32.52083 36.944829 38.77683 43.56083 48.67283 53.38483 58.49683 61.29683 66.03283 70.26483 72.912837 77.14484 79.94484 84.16084 88.392848 93.12084 95.00884">2.SATA data cable</tspan><tspan y="-66.03439" x="32.52083 37.15283 38.98483 40.744829 43.72083 49.86483 52.66483 56.39283 60.96883 62.77683 67.23283 69.12083 73.85683 76.65683 81.38483 85.61683 89.83283 93.75283 96.55283 101.28083 103.16883 107.40083">3.I/O shield back plat</tspan><tspan y="-53.666395" x="32.52083 37.12883 38.96083 44.07283 46.87283 53.91283 58.14483 62.72083 67.29683 71.52883">4.A manual</tspan><tspan y="-176.6344" x="38.81683 43.45683 46.104829 50.68083 55.13683 58.05683 62.98483 67.608829 71.984828 74.76882 79.50482 82.304828 86.88083 91.11283 94.84083 97.64083 101.856838 103.32882 107.50482 111.736827 114.65682 117.456829 121.18482 122.99282 127.736827 132.31282 136.04082 138.84082 143.39282 146.02483 148.82483 153.56082 157.79282 164.83281 169.24883 173.48883 177.94483">otherboard has clear signs of damage.</tspan><tspan y="-253.0504" x="33.024827 34.784826 39.944826 42.968824 45.61682 50.19282 54.800825 57.82482 62.21682 66.08882 70.54482 75.12082 77.99282 81.01682 85.568828 88.152828 91.17683 95.40883 99.98483 104.21683 107.24083 111.79283 114.37683 117.40083 120.048839 124.62483 129.23284">In the event of any of the </tspan></text>
<text fill="#2c292a" xml:space="preserve" transform="matrix(1 0 -0 1 0 330.512)" font-size="8" font-family="HNCSPF+MiSans-Light"><tspan y="-253.0504" x="132.25684">f</tspan></text>
<text fill="#2c292a" xml:space="preserve" transform="matrix(1 0 -0 1 0 330.512)" font-size="8" font-family="LLHVTX+MiSans-Light"><tspan y="-253.0504" x="134.56084 139.11284 141.00084 142.88884 147.44084 153.52085 155.32884 159.90485 165.60884 168.63285 172.46485 177.01685 181.59285 186.32886 188.13686 190.78485 192.59285 197.14485 201.72086 205.44886 208.84085 211.86486 216.44086 220.67285 224.54485 229.16886 232.19286 234.84085 239.41686 243.87285">ollowing conditions, have the </tspan><tspan y="-243.4504" x="33.032854 37.856855 42.480855 46.856855 49.648855 54.384855 57.184854 61.400854 65.97685 70.43285">board chec</tspan></text>
<text fill="#2c292a" xml:space="preserve" transform="matrix(1 0 -0 1 0 330.512)" font-size="8" font-family="HNCSPF+MiSans-Light"><tspan y="-243.4504" x="73.264858">k</tspan></text>
<text fill="#2c292a" xml:space="preserve" transform="matrix(1 0 -0 1 0 330.512)" font-size="8" font-family="LLHVTX+MiSans-Light"><tspan y="-243.4504" x="77.320858 81.776859 86.512859 89.31286 94.040859 97.944858 100.74486 104.97686 107.77686 111.50486 116.040859 119.208858 123.08086 125.17686 129.00885 133.46485 135.08885 137.80886 142.26485 146.48085 151.05686 155.63286 157.44086 161.65686 163.46486 167.69686 172.27286">ed by a service technician:</tspan><tspan y="-285.4824" x="33.032854 34.79285 39.95285 41.47285 45.70485 50.28085 54.51285 56.032854 60.584856 63.168855 64.68885 67.33685 71.91286 76.52085">In any of the </tspan></text>
<text fill="#2c292a" xml:space="preserve" transform="matrix(1 0 -0 1 0 330.512)" font-size="8" font-family="HNCSPF+MiSans-Light"><tspan y="-285.4824" x="78.04085">f</tspan></text>
<text fill="#2c292a" xml:space="preserve" transform="matrix(1 0 -0 1 0 330.512)" font-size="8" font-family="LLHVTX+MiSans-Light"><tspan y="-285.4824" x="80.34485 84.89685 86.78485 88.67285 93.22485 99.304859 101.112857 105.68886 111.39285 112.91285 116.64085 118.448848 121.09685 126.12085 130.40085 133.04885 134.85684 139.40885 143.98485 147.71285 150.38484 151.90485 156.63285 158.88085 163.04885 167.28084 171.00884 175.34485">ollowing situations, please </tspan></text>
<text fill="#2c292a" xml:space="preserve" transform="matrix(1 0 -0 1 0 330.512)" font-size="8" font-family="HNCSPF+MiSans-Light"><tspan y="-285.4824" x="176.86486">k</tspan></text>
<text fill="#2c292a" xml:space="preserve" transform="matrix(1 0 -0 1 0 330.512)" font-size="8" font-family="LLHVTX+MiSans-Light"><tspan y="-285.4824" x="180.92086 185.37685 189.83284 194.36885 195.88886 198.53685 203.11286 207.72086 209.24086 216.47286 221.11286 223.76085 228.33686 232.79285 235.71285 240.64086 245.25685 249.63286 252.42487 257.16087">eep the motherboard </tspan><tspan y="-275.8824" x="33.040864 37.272867 41.848867 47.000864 49.104864 53.832864 58.384866 64.46487 68.92087 72.00086 74.10486 78.01686 82.24886 86.97686 88.86486 93.65686 95.760868 97.56886 102.56087 104.66487 109.04087 111.14487 114.87286">and power cable in a sa</tspan></text>
<text fill="#2c292a" xml:space="preserve" transform="matrix(1 0 -0 1 0 330.512)" font-size="8" font-family="HNCSPF+MiSans-Light"><tspan y="-275.8824" x="119.13686">f</tspan></text>
<text fill="#2c292a" xml:space="preserve" transform="matrix(1 0 -0 1 0 330.512)" font-size="8" font-family="LLHVTX+MiSans-Light"><tspan y="-275.8824" x="121.440868 125.744869 127.84886 132.57686 134.46486 139.20087 143.03287 147.48886 149.33687 151.44087 157.30487 161.56888 163.67288 168.41689 173.05689 175.87288 177.97689 182.70488 187.28089 190.35289 192.4569 196.68889 201.2649 205.1689 207.8169 212.3929 214.2009 218.7769 224.1689 226.2729 230.8249 235.7689 238.4889 243.2409 245.34491 247.9929 252.56891 257.0249">e place. Do not put anything onto the </tspan><tspan y="-266.28239" x="33.04091 37.76891 42.320909 48.40091 52.85691 55.77691 57.71291 61.61691 65.84891 70.576908 72.464908 76.920909">power cable.</tspan></text>
<g clip-path="url(#clip_3)">
<path transform="matrix(1,0,0,-1,28.5947,19.50708)" d="M0 0C0-1.335-1.083-2.418-2.418-2.418-3.754-2.418-4.837-1.335-4.837 0-4.837 1.336-3.754 2.419-2.418 2.419-1.083 2.419 0 1.336 0 0" fill="#de6931"/>
<path transform="matrix(1,0,0,-1,28.5947,42.50708)" d="M0 0C0-1.335-1.083-2.418-2.418-2.418-3.754-2.418-4.837-1.335-4.837 0-4.837 1.336-3.754 2.419-2.418 2.419-1.083 2.419 0 1.336 0 0" fill="#de6931"/>
<path transform="matrix(1,0,0,-1,28.5947,75.173099)" d="M0 0C0-1.336-1.083-2.419-2.418-2.419-3.754-2.419-4.837-1.336-4.837 0-4.837 1.335-3.754 2.418-2.418 2.418-1.083 2.418 0 1.335 0 0" fill="#de6931"/>
</g>
<text fill="#2c292a" xml:space="preserve" transform="matrix(1 0 -0 1 0 330.512)" font-size="8" font-family="HNCSPF+MiSans-Light"><tspan y="-335.9775" x="32.9052">K</tspan></text>
<text fill="#2c292a" xml:space="preserve" transform="matrix(1 0 -0 1 0 330.512)" font-size="8" font-family="LLHVTX+MiSans-Light"><tspan y="-335.9775" x="37.8572 42.3132 46.769205 51.497205 54.297204 56.9452 61.521203 65.9772 68.77721 73.9212 78.5612 81.209209 85.7852 90.2412 93.1612 98.0892 102.7132 107.0892 110.3692 115.1052 117.905208 121.945209 127.60921 131.8412 135.74521 138.54521 141.2332 143.6412 148.1932 155.2332 158.0332 165.0732 169.6252 171.44121 174.8892 177.5372 182.4252 185.2092 189.66519">eep the motherboard away from moisture.</tspan></text>
<g clip-path="url(#clip_4)">
<path transform="matrix(1,0,0,-1,28.5947,-7.3609926)" d="M0 0C0-1.336-1.083-2.418-2.418-2.418-3.754-2.418-4.837-1.336-4.837 0-4.837 1.336-3.754 2.419-2.418 2.419-1.083 2.419 0 1.336 0 0" fill="#de6931"/>
</g>
<text fill="#2c292a" xml:space="preserve" transform="matrix(1 0 -0 1 0 330.512)" font-size="8" font-family="LLHVTX+MiSans-Light"><tspan y="-348.9775" x="32.9052 37.7532 39.6412 43.8732 48.0892 52.5452 55.3452 57.9932 62.5692 67.0252 69.8252 76.865207 81.097209 82.905208 87.4812 90.281208 94.737209 99.3132 104.057209 105.865207 110.44121 114.89721 117.69721 119.50521 124.08121 126.88121 131.1132 133.91321 138.6492 141.5692 145.4732 148.27321 153.0012 154.8892 159.1212 163.0412">Place the main engine in a dry place</tspan></text>
<g clip-path="url(#clip_5)">
<path transform="matrix(1,0,0,-1,28.5947,-20.360993)" d="M0 0C0-1.336-1.083-2.418-2.418-2.418-3.754-2.418-4.837-1.336-4.837 0-4.837 1.336-3.754 2.419-2.418 2.419-1.083 2.419 0 1.336 0 0" fill="#de6931"/>
</g>
<text fill="#2c292a" xml:space="preserve" transform="matrix(1 0 -0 1 0 330.512)" font-size="8" font-family="HNCSPF+MiSans-Light"><tspan y="-322.0781" x="32.9057">K</tspan></text>
<text fill="#2c292a" xml:space="preserve" transform="matrix(1 0 -0 1 0 330.512)" font-size="8" font-family="LLHVTX+MiSans-Light"><tspan y="-322.0781" x="37.8657 42.3217 46.777704 51.505704 54.305704 56.9537 61.5297 65.9857 68.785709 73.36171 77.08971 81.54571 84.465709 87.26571 94.30571 98.53771 103.11371 107.68971 111.921718 113.809719">eep the user manual </tspan></text>
<text fill="#2c292a" xml:space="preserve" transform="matrix(1 0 -0 1 0 330.512)" font-size="8" font-family="HNCSPF+MiSans-Light"><tspan y="-322.0781" x="113.3457">f</tspan></text>
<text fill="#2c292a" xml:space="preserve" transform="matrix(1 0 -0 1 0 330.512)" font-size="8" font-family="LLHVTX+MiSans-Light"><tspan y="-322.0781" x="115.649707 120.201709 123.121707 125.92171 128.55371 133.12972 135.77771 140.35372 143.13771 147.5937 149.21772 152.00171">or future re</tspan></text>
<text fill="#2c292a" xml:space="preserve" transform="matrix(1 0 -0 1 0 330.512)" font-size="8" font-family="HNCSPF+MiSans-Light"><tspan y="-322.0781" x="156.30571">f</tspan></text>
<text fill="#2c292a" xml:space="preserve" transform="matrix(1 0 -0 1 0 330.512)" font-size="8" font-family="LLHVTX+MiSans-Light"><tspan y="-322.0781" x="158.60971 162.91371 165.70572 170.16172 174.75373 178.58573 183.04172">erence.</tspan></text>
<g clip-path="url(#clip_6)">
<path transform="matrix(1,0,0,-1,28.5947,6.394806)" d="M0 0C0-1.336-1.083-2.419-2.418-2.419-3.754-2.419-4.837-1.336-4.837 0-4.837 1.335-3.754 2.418-2.418 2.418-1.083 2.418 0 1.335 0 0" fill="#de6931"/>
</g>
<text fill="#2c292a" xml:space="preserve" transform="matrix(1 0 -0 1 0 330.512)" font-size="8" font-family="LLHVTX+MiSans-Light"><tspan y="-302.4189" x="294.1396 299.60359 304.45158 309.97157 317.97157 323.08357 329.94758 335.81159 338.61158 343.25959 348.10758 352.88359 358.34757 361.14756 365.13157 370.01957 374.90757 379.33158 382.3076 386.2916 391.1796 396.0676 400.6996 403.49958 408.28358 412.73957 415.65959 417.4676 421.92359">CPU&#xff1a;AMD EPYC 7002/7003&#x00a0;Series</tspan><tspan y="-286.13893" x="294.1396 299.0836 304.1956 311.0596 319.0596 317.77159 322.6356 326.05158 331.9156 333.6756 340.5396 347.40364 350.2036 353.9316 358.5076 363.2356 367.9636 372.5156 375.4356 378.08363 381.8116 384.6116 389.1876 393.9156 396.71559 399.3636 403.9156 406.71559 411.1396 415.8516 421.0036 423.8036 429.6676 435.53163 440.47563">RAM&#xff1a; 8*DIMM supports up to 2TB DDR4</tspan><tspan y="-275.5389" x="284.0276 286.82759 289.62757 292.42756 295.22755 298.02754 300.8275 303.6275 306.4275 309.22749 312.02748 314.82746 319.45945 323.88346 328.77146 333.65946 336.63548 341.05949 345.72349 350.35548 354.98747 357.96348 362.38749 367.0995 371.8115 376.5235 379.4995 383.92353 388.53153 393.41954 398.30754 401.28355 405.70756 408.67555 413.30754 417.9395 424.80354 430.39555">           3200/2933/2666/2400/2133MHZ</tspan><tspan y="-265.3389" x="284.0276 286.82759 289.62757 292.42756 295.22755 298.02754 300.8275 303.6275 306.4275 309.22749 312.02748 314.82746 319.93946 324.15547 326.80348 331.37947 335.61146 337.49946 340.29945 347.33946 351.79545 358.83546 363.38746 366.30747 370.21147 373.01145 377.74745 381.97944 384.62745 388.85945 391.65943 394.57945 398.81144 401.45945 405.91545 408.71543 413.45143 417.9074 422.6354 427.0914 431.6674 436.40339 440.13139 442.93138 447.48338 452.05937 454.85935 460.32334 465.17134 470.6913 473.4913 476.1393 480.0433 484.7713 489.2273 492.02729 496.25929 500.83528 505.57127 508.37126 514.2352 519.1792 524.2912 531.1552 533.9552 540.9952 545.5472 550.2832 554.8592 556.7472">           Actual memory data rate depends on CPU type and DRAM module</tspan><tspan y="-248.57089" x="294.1396 295.8996 298.8756 305.01963 307.8196 312.2756 314.9076 317.53959 321.99559 326.21159 328.8596 332.5876 340.5876 345.0116 347.81159 351.4676 354.26759 359.78758 364.57157 369.72358 374.14759 375.97959 380.86759 383.66758 385.4756 390.05158 392.6996 397.15559 400.0756 402.70759 406.93959 411.15559">I/O effects&#xff1a;2 x USB2.0 interface</tspan><tspan y="-238.97089" x="273.8036 276.60359 279.40357 282.20356 285.00355 287.80354 290.60353 293.4035 296.2035 299.00349 301.80348 304.60346 307.40345 310.20344 313.00343 315.8034 318.6034 321.40339 324.20338 327.00337 329.80335 332.60334 335.40333 338.2033 341.0033 345.6113 348.4113 352.0673 354.86729 360.38728 365.17127 370.32328 374.95527 376.78727 381.21128 384.01127 385.81929 390.39527 393.04328 397.49928 400.41929 403.05128 407.28327 411.49928">                        4 x USB3.2 interface</tspan><tspan y="-229.06688" x="273.8036 276.60359 279.40357 282.20356 285.00355 287.80354 290.60353 293.4035 296.2035 299.00349 301.80348 304.60346 307.40345 310.20344 313.00343 315.8034 318.6034 321.40339 324.20338 327.00337 329.80335 332.60334 335.40333 338.2033 341.0033 343.97129 346.77128 350.42729 353.22727 358.33927 364.15528 369.26728 372.06727 373.87528 378.45127 381.09928 385.55528 388.47529 391.10728 395.33927 399.55528">                        1 x VGA interface</tspan><tspan y="-219.00289" x="273.8036 276.60359 279.40357 282.20356 285.00355 287.80354 290.60353 293.4035 296.2035 299.00349 301.80348 304.60346 307.40345 310.20344 313.00343 315.8034 318.6034 321.40339 324.20338 327.00337 329.80335 332.60334 335.40333 338.2033 341.0033 343.97129 346.77128 350.42729 353.22727 358.17127 361.69929 366.30729 370.9553 373.75529 378.1793 380.0113 384.6593 390.4753 393.2753 397.8513 402.30729 404.9553 411.03529 415.58729 418.5073 422.4273 425.2273 429.4593 434.19529 438.42729 443.15528 445.80329 450.25929 453.1793 455.97929 460.70729 465.25929 468.1793">                        1 x RJ45 2.5G network adapter port</tspan><tspan y="-209.40288" x="273.8036 276.60359 279.40357 282.20356 285.00355 287.80354 290.60353 293.4035 296.2035 299.00349 301.80348 304.60346 307.40345 310.20344 313.00343 315.8034 318.6034 321.40339 324.20338 327.00337 329.80335 332.60334 335.40333 338.2033 341.0033 343.97129 346.77128 350.42729 353.22727 354.98728 359.83528 366.69929 368.4593 371.25929 378.2993 382.53129 387.10728 391.33927 396.08326 400.53926 407.57926 412.03526 416.61125 419.25926 422.05924 426.78724 431.33924 434.25926">                        1 x IPMI management port</tspan><tspan y="-199.21088" x="273.8036 276.60359 279.40357 282.20356 285.00355 287.80354 290.60353 293.4035 296.2035 299.00349 301.80348 304.60346 307.40345 310.20344 313.00343 315.8034 318.6034 321.40339 324.20338 327.00337 329.80335 332.60334 335.40333 338.2033 341.0033 343.97129 346.77128 350.42729 353.22727 358.33927 362.91526 367.65126 369.45927 374.01127 376.81126 378.61927 383.19526 385.84327 390.29927 393.21928 395.85127 400.08326 404.29927">                        1 x Audio interface</tspan><tspan y="-182.75489" x="294.1396 299.2916 303.86759 305.6756 307.5636 310.2116 313.29963 315.10765 319.68363 322.4836 327.3316 329.13963 333.7156 341.7156 346.13963 348.9396 352.5956 355.3956 359.8676 362.78764 367.33964 371.91563 374.56364 377.36363 381.5956 386.1716 390.9076 392.7156 397.2676 400.0676 404.9156 406.7236">Built-in Pin&#xff1a;2 x Front audio Pin</tspan><tspan y="-173.15488" x="273.8036 276.60359 279.40357 282.20356 285.00355 287.80354 290.60353 293.4035 296.2035 299.00349 301.80348 304.60346 307.40345 310.20344 313.00343 315.8034 318.6034 321.40339 324.20338 327.00337 329.80335 332.60334 335.40333 338.2033 341.0033 345.6113 348.4113 352.0673 354.86729 357.83528 362.49928 365.58729 370.43528 372.2433 376.81929 379.61927 385.13926 389.92326 395.07527 399.70726 401.53926">                        4 x 19-Pin USB3.0</tspan><tspan y="-163.25087" x="273.8036 276.60359 279.40357 282.20356 285.00355 287.80354 290.60353 293.4035 296.2035 299.00349 301.80348 304.60346 307.40345 310.20344 313.00343 315.8034 318.6034 321.40339 324.20338 327.00337 329.80335 332.60334 335.40333 338.2033 341.0033 343.97129 346.77128 350.42729 353.22727 357.89128 360.69126 365.53926 367.34727 371.92326 374.72325 380.24324 385.02723 390.17924 394.60325 396.43525">                        1 x 9 Pin USB2.0</tspan><tspan y="-153.18688" x="273.8036 276.60359 279.40357 282.20356 285.00355 287.80354 290.60353 293.4035 296.2035 299.00349 301.80348 304.60346 307.40345 310.20344 313.00343 315.8034 318.6034 321.40339 324.20338 327.00337 329.80335 332.60334 335.40333 338.2033 341.0033 343.97129 346.77128 350.42729 353.22727 357.89128 360.69126 365.53926 367.34727 371.92326 374.72325 380.18724 386.33125">                        1 x 9 Pin COM</tspan><tspan y="-143.58687" x="273.8036 276.60359 279.40357 282.20356 285.00355 287.80354 290.60353 293.4035 296.2035 299.00349 301.80348 304.60346 307.40345 310.20344 313.00343 315.8034 318.6034 321.40339 324.20338 327.00337 329.80335 332.60334 335.40333 338.2033 341.0033 343.97129 346.77128 350.42729 353.22727 357.89128 360.69126 365.53926 367.34727 371.92326 374.72325 378.25126 382.72328 387.57127">                        1 x 9 Pin JFP1</tspan><tspan y="-133.39487" x="273.8036 276.60359 279.40357 282.20356 285.00355 287.80354 290.60353 293.4035 296.2035 299.00349 301.80348 304.60346 307.40345 310.20344 313.00343 315.8034 318.6034 321.40339 324.20338 327.00337 329.80335 332.60334 335.40333 338.2033 341.0033 343.97129 346.77128 350.42729 353.22727 357.83528 360.63526 365.48326 367.29127 371.86726 374.66725 379.13923 383.37123">                        1 x 4 Pin Fan</tspan><tspan y="-114.89087" x="294.1396 298.7876 302.4436 307.1716 311.4036 315.97959 319.70759 321.5156 326.0676 330.6436 333.44358 337.17158 339.05958 343.61158 346.25959 354.25959 351.8916 352.8596 357.4676 361.1236 365.9716 371.43559 373.32359 377.77958 382.41157 384.24357 389.13157 392.10758 396.71559 398.54759 403.43559 407.09159 410.05958">Expansion slot&#xff1a;  4xPCle3.0/4.0x16</tspan><tspan y="-105.29087" x="260.9716 263.77159 266.57157 269.37156 272.17155 274.97154 277.7715 280.5715 283.3715 286.17149 288.97148 291.77146 294.57145 297.37144 300.17143 302.9714 305.7714 308.57139 311.37138 314.17137 316.97135 319.77134 322.57133 325.3713 328.1713 330.97129 333.77128 336.57127 339.37126 342.17124 344.97123 347.7712 350.5712 353.3712 355.1312 359.9792 366.8432 368.6032 371.4032 378.4432 382.9952 387.7312 392.3072 394.1952 398.65119 401.45118 406.17918 410.73118 413.65119">                                 IPMI module port</tspan><tspan y="-87.14687" x="294.1396 298.7876 302.4436 307.1716 311.4036 315.97959 319.70759 321.5156 326.0676 330.6436 333.44358 337.17158 339.05958 343.61158 346.25959 354.25959 351.8916">Expansion slot&#xff1a;  </tspan></text>
<text fill="#2c292a" xml:space="preserve" transform="matrix(1 0 -0 1 0 330.512)" font-size="9" font-family="LLHVTX+MiSans-Light"><tspan y="-87.1504" x="352.8596 358.04359 362.1566 367.53858 373.28959 378.59059 384.34159 389.55259 391.6136">4xSATA3.0</tspan></text>
<text fill="#2c292a" xml:space="preserve" transform="matrix(1 0 -0 1 0 330.512)" font-size="8" font-family="LLHVTX+MiSans-Light"><tspan y="-77.5498" x="260.9726 263.77259 266.57258 269.37257 272.17256 274.97254 277.77253 280.5725 283.3725 286.1725 288.97248 291.77247 294.57246 297.37245 300.17243 302.9724 305.7724 308.5724 311.37239 314.17237 316.97236 319.77235 322.57234 325.3723 328.1723 330.9723 333.77229 336.57228 339.37226 342.17225 344.97224 347.77223 350.5722">                                 </tspan></text>
<text fill="#2c292a" xml:space="preserve" transform="matrix(1 0 -0 1 0 330.512)" font-size="9" font-family="LLHVTX+MiSans-Light"><tspan y="-77.5498" x="353.3702 358.5812 362.6942 370.4162 372.3962 378.8492 380.82923 386.2112 391.96223 397.3442 399.9182 405.3002 411.0512 416.3522 422.1032 425.9462 431.1302 437.1872 442.6412 448.7882 450.76823 455.99723 461.20823 463.26924 468.76823 472.1162 477.3002 479.3612 484.8602 490.2512 495.43519">3xMINISAS(SATA*4&#x0026;PCIE3.0/4.0X4)</tspan></text>
</g>
</g>
</g>
</svg>
